<svg width="311" height="207" viewBox="0 0 311 207" fill="none" xmlns="http://www.w3.org/2000/svg">
<g clip-path="url(#clip0_2_4)">
<path d="M303.166 126.259C303.13 126.268 303.094 126.273 303.057 126.274C296.812 126.548 290.576 126.956 284.348 127.497H284.338C284.312 127.501 284.29 127.501 284.265 127.505C277.871 128.061 271.49 128.759 265.122 129.597C264.853 129.633 264.586 129.67 264.32 129.703C259.917 130.293 255.522 130.947 251.135 131.667C249.199 131.985 247.267 132.317 245.338 132.663C245.094 132.707 244.854 132.747 244.609 132.795V131.685C244.854 131.637 245.098 131.597 245.338 131.553C251.762 130.41 258.207 129.412 264.674 128.56C266.3 128.34 267.928 128.132 269.559 127.937C274.269 127.365 278.986 126.872 283.71 126.457C284.057 126.427 284.399 126.398 284.746 126.369C290.794 125.852 296.85 125.46 302.915 125.193C302.944 125.191 302.974 125.194 303.002 125.2C303.586 125.251 303.71 126.131 303.166 126.259Z" fill="#FDB913" fill-opacity="0.5"/>
<path d="M290.198 143.567C282.418 143.625 274.754 140.31 269.252 134.822C267.699 133.268 266.331 131.538 265.175 129.668C264.804 129.07 263.936 129.729 264.304 130.322C268.577 137.21 275.696 142.116 283.544 143.92C285.773 144.428 288.052 144.673 290.338 144.651C291.035 144.646 290.891 143.562 290.198 143.567Z" fill="#FDB913" fill-opacity="0.5"/>
<path d="M257.317 114.839C257.284 114.942 257.224 115.035 257.144 115.107C257.064 115.18 256.967 115.23 256.862 115.253C255.079 115.723 253.356 116.399 251.729 117.268C249.352 118.53 247.194 120.169 245.338 122.123C245.24 122.222 245.145 122.321 245.054 122.423C244.901 122.584 244.755 122.749 244.609 122.918V121.32C244.843 121.071 245.087 120.826 245.338 120.591C246.804 119.181 248.427 117.947 250.176 116.913C252.524 116.107 254.904 115.416 257.317 114.839Z" fill="#FDB913" fill-opacity="0.5"/>
<path d="M295.521 115.543C290.573 117.681 286.432 121.35 283.702 126.016C283.647 126.15 283.646 126.3 283.7 126.434C283.754 126.568 283.859 126.675 283.991 126.732C284.124 126.785 284.272 126.784 284.405 126.73C284.538 126.676 284.644 126.573 284.703 126.442C287.309 122.034 291.24 118.573 295.93 116.556C296.573 116.279 296.166 115.267 295.521 115.543Z" fill="#FDB913" fill-opacity="0.5"/>
<path d="M308.594 71.5412V71.5449C308.567 71.5685 308.538 71.5894 308.507 71.6072C303.112 74.7616 297.784 78.0309 292.525 81.4149C292.518 81.4186 292.514 81.4222 292.507 81.4259C292.486 81.4407 292.464 81.4541 292.441 81.4662C287.035 84.9467 281.705 88.5445 276.452 92.2595C276.234 92.4134 276.011 92.5709 275.789 92.7285C272.162 95.3041 268.572 97.9346 265.02 100.62C258.313 105.698 251.752 110.964 245.338 116.418C245.094 116.623 244.854 116.832 244.609 117.041V115.616C244.85 115.407 245.094 115.198 245.338 114.993C247.796 112.908 250.274 110.853 252.775 108.827C253.523 108.222 254.273 107.618 255.024 107.021C261.696 101.683 268.516 96.5436 275.486 91.6037H275.49C276.861 90.6328 278.234 89.6705 279.609 88.7167C283.517 86.0129 287.469 83.3738 291.464 80.7994C291.752 80.6126 292.044 80.4257 292.336 80.2389C297.45 76.9562 302.632 73.781 307.88 70.7132C307.905 70.6976 307.932 70.6841 307.96 70.6729C308.507 70.4531 309.021 71.1785 308.594 71.5412Z" fill="#FDB913" fill-opacity="0.5"/>
<path d="M305.114 92.9241C298.251 96.6068 289.932 97.2489 282.523 94.9584C280.429 94.3069 278.418 93.4137 276.529 92.2969C275.925 91.9407 275.461 92.9295 276.061 93.2827C283.029 97.3874 291.6 98.4093 299.384 96.3431C301.593 95.752 303.725 94.9048 305.738 93.8184C306.354 93.4882 305.725 92.5961 305.114 92.9241Z" fill="#FDB913" fill-opacity="0.5"/>
<path d="M253.768 106.329C253.428 104.411 253.312 102.46 253.421 100.515C253.666 96.0792 255.018 91.7767 257.351 88.0031C259.059 86.1939 260.848 84.4704 262.718 82.8328C262.736 82.9399 262.725 83.0498 262.688 83.1516C262.65 83.2534 262.587 83.3437 262.504 83.4134C261.143 84.6617 259.931 86.0642 258.891 87.5929C255.177 93.0409 253.727 99.7315 254.851 106.238C254.869 106.312 254.868 106.389 254.848 106.463C254.828 106.536 254.79 106.603 254.737 106.657C254.659 106.725 254.564 106.772 254.463 106.792C254.362 106.812 254.257 106.805 254.159 106.772C254.061 106.739 253.973 106.681 253.904 106.603C253.836 106.525 253.789 106.431 253.768 106.329Z" fill="#FDB913" fill-opacity="0.5"/>
<path d="M296.874 65.6218C293.48 69.8249 291.509 75.0071 291.248 80.414C291.261 80.558 291.33 80.6912 291.439 80.7846C291.549 80.878 291.691 80.9242 291.835 80.913C291.977 80.8977 292.108 80.8279 292.2 80.7181C292.293 80.6083 292.34 80.4669 292.331 80.3233C292.602 75.2039 294.483 70.303 297.704 66.3275C298.146 65.7824 297.317 65.0756 296.874 65.6218Z" fill="#FDB913" fill-opacity="0.5"/>
<path d="M249.709 57.9345C249.701 57.9704 249.687 58.0049 249.669 58.0371C248.193 60.9204 246.749 63.8184 245.338 66.7311C245.094 67.233 244.85 67.7386 244.609 68.2405V65.7492C244.85 65.2509 245.093 64.7527 245.338 64.2544C246.429 62.0342 247.537 59.8237 248.663 57.6231C248.676 57.5974 248.69 57.5729 248.707 57.5498C249.042 57.0662 249.873 57.3959 249.709 57.9345Z" fill="#FDB913" fill-opacity="0.5"/>
<path d="M259.239 78.2496C259.173 78.3668 259.107 78.484 259.034 78.6013C257.964 80.4761 256.69 82.2258 255.236 83.8184C252.443 86.8637 249.08 89.3251 245.338 91.0616C245.098 91.1788 244.854 91.2888 244.609 91.3913V90.2006C244.854 90.0907 245.098 89.9771 245.338 89.8599C250.754 87.2639 255.252 83.069 258.232 77.8356C258.275 77.7609 258.334 77.6963 258.404 77.6463C258.474 77.5962 258.554 77.5619 258.638 77.5455C258.722 77.5292 258.809 77.5313 258.893 77.5516C258.976 77.572 259.054 77.6101 259.122 77.6634C259.168 77.6942 259.207 77.7337 259.238 77.7799C259.269 77.826 259.29 77.8777 259.301 77.9322C259.312 77.9866 259.312 78.0427 259.301 78.0972C259.291 78.1516 259.269 78.2034 259.239 78.2496Z" fill="#FDB913" fill-opacity="0.5"/>
<path d="M245.339 12.0903V39.9345H244.61V39.6378H0.729095V39.9345H4.17969e-06V12.0903C0.00313503 8.88469 1.27158 5.81131 3.52697 3.54463C5.78235 1.27795 8.84041 0.00314654 12.03 0H233.309C236.499 0.00314654 239.557 1.27795 241.812 3.54463C244.067 5.81131 245.336 8.88469 245.339 12.0903Z" fill="#FDB913"/>
<path d="M233.309 0H12.03C8.84041 0.00314654 5.78235 1.27795 3.52697 3.54463C1.27158 5.81131 0.00313503 8.88469 4.17969e-06 12.0903V171.096C0.00313503 174.301 1.27158 177.375 3.52697 179.641C5.78235 181.908 8.84041 183.183 12.03 183.186H233.309C236.499 183.183 239.557 181.908 241.812 179.641C244.067 177.375 245.336 174.301 245.339 171.096V12.0903C245.336 8.88469 244.067 5.81131 241.812 3.54463C239.557 1.27795 236.499 0.00314654 233.309 0ZM244.61 171.096C244.606 174.107 243.414 176.993 241.296 179.122C239.177 181.251 236.305 182.449 233.309 182.453H12.03C9.03399 182.449 6.16178 181.251 4.04327 179.122C1.92477 176.993 0.732918 174.107 0.729095 171.096V12.0903C0.732918 9.07924 1.92477 6.19265 4.04327 4.06353C6.16178 1.93441 9.03399 0.736585 12.03 0.732743H233.309C236.305 0.736586 239.177 1.93441 241.296 4.06353C243.414 6.19265 244.606 9.07924 244.61 12.0903V171.096Z" fill="#FDB913"/>
<path d="M49.5782 27.2949C53.6048 27.2949 56.8691 24.0143 56.8691 19.9674C56.8691 15.9206 53.6048 12.64 49.5782 12.64C45.5515 12.64 42.2873 15.9206 42.2873 19.9674C42.2873 24.0143 45.5515 27.2949 49.5782 27.2949Z" fill="#FDDF98"/>
<path d="M195.762 27.2949C199.788 27.2949 203.053 24.0143 203.053 19.9674C203.053 15.9206 199.788 12.64 195.762 12.64C191.735 12.64 188.471 15.9206 188.471 19.9674C188.471 24.0143 191.735 27.2949 195.762 27.2949Z" fill="#FDDF98"/>
<path d="M70.6426 101.669H27.2704C25.4329 101.667 23.6713 100.932 22.372 99.6264C21.0728 98.3206 20.3419 96.5502 20.3398 94.7035V74.1015C20.3419 72.2548 21.0728 70.4844 22.372 69.1786C23.6713 67.8728 25.4329 67.1383 27.2704 67.1362H70.6426C72.4801 67.1383 74.2417 67.8728 75.5409 69.1786C76.8402 70.4844 77.5711 72.2548 77.5732 74.1015V94.7035C77.5711 96.5502 76.8402 98.3206 75.5409 99.6264C74.2417 100.932 72.4801 101.667 70.6426 101.669Z" fill="#FDB913"/>
<path d="M144.426 101.669H101.054C99.2161 101.667 97.4545 100.932 96.1552 99.6264C94.856 98.3206 94.1251 96.5502 94.123 94.7035V74.1015C94.1251 72.2548 94.856 70.4844 96.1552 69.1786C97.4545 67.8728 99.2161 67.1383 101.054 67.1362H144.426C146.263 67.1383 148.025 67.8728 149.324 69.1786C150.623 70.4844 151.354 72.2548 151.356 74.1015V94.7035C151.354 96.5502 150.623 98.3206 149.324 99.6264C148.025 100.932 146.263 101.667 144.426 101.669Z" fill="#FDB913"/>
<path d="M48.9562 96.2227C55.4516 96.2227 60.7171 90.9307 60.7171 84.4028C60.7171 77.8749 55.4516 72.583 48.9562 72.583C42.4608 72.583 37.1953 77.8749 37.1953 84.4028C37.1953 90.9307 42.4608 96.2227 48.9562 96.2227Z" fill="#FDDF98"/>
<path d="M47.7918 88.9113C47.5272 88.9118 47.2696 88.8258 47.0579 88.6663L47.0448 88.6564L44.2809 86.5296C44.1527 86.4311 44.0451 86.3082 43.9642 86.1679C43.8834 86.0276 43.8308 85.8726 43.8095 85.7118C43.7883 85.5511 43.7988 85.3877 43.8404 85.231C43.882 85.0743 43.9539 84.9274 44.052 84.7987C44.1502 84.67 44.2726 84.562 44.4123 84.4808C44.552 84.3997 44.7063 84.347 44.8662 84.3258C45.0262 84.3046 45.1888 84.3153 45.3446 84.3573C45.5005 84.3992 45.6466 84.4717 45.7746 84.5704L47.5648 85.95L51.7954 80.4051C51.8935 80.2764 52.0159 80.1685 52.1555 80.0874C52.2951 80.0063 52.4493 79.9537 52.6092 79.9325C52.769 79.9113 52.9315 79.9219 53.0873 79.9638C53.243 80.0057 53.3891 80.078 53.517 80.1767L53.4907 80.2126L53.5177 80.1772C53.7758 80.3766 53.9447 80.6707 53.9873 80.9951C54.0299 81.3194 53.9428 81.6476 53.745 81.9074L48.7687 88.4297C48.6537 88.58 48.5057 88.7016 48.3362 88.7851C48.1668 88.8686 47.9805 88.9118 47.7918 88.9113Z" fill="#FDB913"/>
<path d="M122.95 96.0529C129.446 96.0529 134.711 90.7609 134.711 84.233C134.711 77.7051 129.446 72.4132 122.95 72.4132C116.455 72.4132 111.189 77.7051 111.189 84.233C111.189 90.7609 116.455 96.0529 122.95 96.0529Z" fill="#FDDF98"/>
<path d="M121.785 88.7419C121.52 88.7424 121.263 88.6564 121.051 88.4969L121.038 88.487L118.274 86.3603C118.015 86.1612 117.846 85.8671 117.803 85.5426C117.761 85.2182 117.848 84.8899 118.046 84.6301C118.244 84.3703 118.537 84.2002 118.86 84.1573C119.183 84.1143 119.509 84.202 119.768 84.4011L121.558 85.7807L125.788 80.2357C125.887 80.1071 126.009 79.9992 126.149 79.9181C126.288 79.837 126.442 79.7844 126.602 79.7632C126.762 79.7419 126.925 79.7526 127.08 79.7945C127.236 79.8364 127.382 79.9087 127.51 80.0073L127.484 80.0432L127.511 80.0078C127.769 80.2072 127.938 80.5014 127.98 80.8257C128.023 81.1501 127.936 81.4782 127.738 81.7381L122.762 88.2603C122.647 88.4106 122.499 88.5322 122.329 88.6158C122.16 88.6993 121.974 88.7425 121.785 88.7419Z" fill="#FDB913"/>
<path d="M202.437 140.009C202.823 139.584 203.112 139.08 203.283 138.531C203.455 137.982 203.504 137.402 203.428 136.831C203.352 136.261 203.153 135.714 202.844 135.23C202.535 134.745 202.125 134.335 201.641 134.027L195.075 98.7921L187.09 101.768L196.055 135.467C195.594 136.318 195.46 137.309 195.678 138.253C195.897 139.197 196.452 140.027 197.238 140.587C198.025 141.147 198.989 141.397 199.947 141.291C200.905 141.184 201.791 140.728 202.437 140.009Z" fill="#FDDF98"/>
<path d="M138.719 86.244C138.739 86.4628 138.742 86.6829 138.727 86.9021L154.253 98.9116L158.656 97.0945L162.253 103.414L154.77 107.392C154.165 107.713 153.473 107.829 152.798 107.722C152.122 107.614 151.5 107.289 151.024 106.796L135.505 90.7161C134.683 90.9023 133.825 90.8327 133.044 90.5166C132.262 90.2006 131.595 89.6529 131.131 88.9466C130.668 88.2403 130.429 87.4088 130.446 86.5626C130.464 85.7165 130.738 84.8958 131.231 84.2098C131.724 83.5238 132.413 83.0049 133.207 82.7222C134.001 82.4395 134.861 82.4063 135.674 82.6272C136.487 82.848 137.214 83.3123 137.758 83.9584C138.302 84.6045 138.637 85.4017 138.719 86.244Z" fill="#FDDF98"/>
<path d="M174.992 202.548H170.523L168.397 188.887L174.993 188.887L174.992 202.548Z" fill="#FDDF98"/>
<path d="M176.131 206.902L161.721 206.902V206.719C161.721 205.978 161.866 205.245 162.148 204.561C162.43 203.877 162.843 203.256 163.364 202.732C163.884 202.209 164.503 201.794 165.183 201.51C165.864 201.227 166.593 201.081 167.33 201.081L176.132 201.082L176.131 206.902Z" fill="#2F2E41"/>
<path d="M191.761 202.548H187.292L185.166 188.887L191.762 188.887L191.761 202.548Z" fill="#FDDF98"/>
<path d="M192.901 206.902L178.49 206.902V206.719C178.49 205.978 178.635 205.245 178.917 204.561C179.199 203.877 179.612 203.256 180.133 202.732C180.654 202.209 181.272 201.794 181.953 201.51C182.633 201.227 183.363 201.081 184.099 201.081L192.901 201.082L192.901 206.902Z" fill="#2F2E41"/>
<path d="M169.594 199.848C169.186 199.848 168.793 199.696 168.491 199.42C168.189 199.144 168.001 198.764 167.963 198.356L164.068 145.712L164.252 145.697L191.054 143.483L191.061 143.675L193.192 198.209C193.2 198.431 193.164 198.652 193.085 198.859C193.007 199.066 192.887 199.255 192.734 199.415C192.581 199.574 192.398 199.701 192.194 199.788C191.991 199.875 191.773 199.92 191.553 199.92H186.297C185.905 199.921 185.525 199.781 185.227 199.524C184.93 199.268 184.734 198.912 184.676 198.522L177.54 154.467C177.533 154.422 177.509 154.381 177.473 154.352C177.437 154.323 177.392 154.309 177.346 154.312C177.301 154.316 177.258 154.336 177.227 154.37C177.195 154.403 177.178 154.448 177.177 154.494L176.854 197.991C176.85 198.411 176.688 198.814 176.399 199.118C176.11 199.421 175.717 199.603 175.299 199.625L169.682 199.845C169.653 199.847 169.623 199.848 169.594 199.848Z" fill="#2F2E41"/>
<path d="M174.17 79.1825C179.115 79.1825 183.124 75.1537 183.124 70.184C183.124 65.2143 179.115 61.1855 174.17 61.1855C169.225 61.1855 165.217 65.2143 165.217 70.184C165.217 75.1537 169.225 79.1825 174.17 79.1825Z" fill="#FDDF98"/>
<path d="M175.902 149.07C171.989 149.059 168.094 148.524 164.321 147.48C163.958 147.373 163.642 147.145 163.428 146.832C163.213 146.519 163.112 146.141 163.142 145.763C164.347 127.556 164.63 113.428 162.096 103.652C161.015 99.4857 161.506 95.0977 163.441 91.6132C166.354 86.3693 171.707 83.1777 177.418 83.2879C177.691 83.2931 177.966 83.3029 178.245 83.3173C186.911 83.7657 193.664 91.6451 193.298 100.882L191.555 144.908C191.549 145.229 191.448 145.541 191.265 145.805C191.083 146.069 190.826 146.272 190.529 146.39C185.853 148.158 180.898 149.066 175.902 149.07Z" fill="#FDB913"/>
<path d="M163.57 107.032L156.864 98.7721C156.673 98.5371 156.535 98.2636 156.459 97.97C156.382 97.6765 156.37 97.3699 156.423 97.0712C156.475 96.7725 156.591 96.4886 156.762 96.2389C156.934 95.9893 157.156 95.7796 157.416 95.6243L166.501 90.1837C167.703 89.2091 169.24 88.7533 170.776 88.9162C172.312 89.0792 173.721 89.8476 174.693 91.0529C175.666 92.2583 176.124 93.8023 175.966 95.3462C175.808 96.8902 175.047 98.3081 173.85 99.289L166.75 107.119C166.546 107.344 166.297 107.521 166.019 107.64C165.742 107.758 165.442 107.816 165.14 107.807C164.838 107.799 164.542 107.725 164.271 107.592C164 107.458 163.761 107.267 163.57 107.032Z" fill="#FDB913"/>
<path d="M184.667 105.996C184.392 105.872 184.146 105.69 183.947 105.462C183.748 105.234 183.6 104.965 183.514 104.674L180.495 94.5241C179.839 93.1185 179.765 91.5091 180.289 90.0488C180.813 88.5885 181.891 87.3965 183.288 86.7344C184.685 86.0722 186.286 85.9939 187.74 86.5165C189.195 87.0392 190.383 88.1202 191.046 89.5225L196.884 98.3845C197.051 98.6374 197.161 98.9234 197.208 99.2231C197.255 99.5228 197.237 99.8291 197.155 100.121C197.073 100.413 196.93 100.684 196.735 100.915C196.54 101.147 196.297 101.333 196.024 101.461L186.416 105.981C186.143 106.11 185.845 106.178 185.543 106.18C185.241 106.183 184.943 106.12 184.667 105.996Z" fill="#FDB913"/>
<path d="M178.595 77.567L171.958 76.0404C171.273 75.8829 170.451 75.5824 170.356 74.8831C170.228 73.9433 171.574 73.2886 171.45 72.3483C171.33 71.4376 170.104 71.3202 169.23 71.0514C168.415 70.7644 167.744 70.1703 167.358 69.3949C166.973 68.6194 166.902 67.7235 167.162 66.8967C166.216 68.2361 164.055 68.3508 162.829 67.2656C161.602 66.1805 161.367 64.2115 162.103 62.7454C162.501 62.0253 163.063 61.4097 163.742 60.9488C164.421 60.4879 165.199 60.1946 166.013 60.0927C167.648 59.9063 169.301 60.2161 170.76 60.9822C170.857 59.9441 172.147 59.5233 173.184 59.514C175.339 59.5393 177.433 60.2391 179.174 61.516C180.915 62.793 182.216 64.5836 182.897 66.6386C184.17 70.7611 183.318 75.28 179.757 77.692L178.595 77.567Z" fill="#2F2E41"/>
<path d="M245.444 207H106.552C106.455 207 106.363 206.962 106.294 206.893C106.226 206.824 106.188 206.731 106.188 206.634C106.188 206.537 106.226 206.444 106.294 206.375C106.363 206.306 106.455 206.268 106.552 206.268H245.444C245.541 206.268 245.633 206.306 245.702 206.375C245.77 206.444 245.808 206.537 245.808 206.634C245.808 206.731 245.77 206.824 245.702 206.893C245.633 206.962 245.541 207 245.444 207Z" fill="#FDB913"/>
</g>
<defs>
<clipPath id="clip0_2_4">
<rect width="311" height="207" fill="white"/>
</clipPath>
</defs>
</svg>
