<svg width="310" height="212" viewBox="0 0 310 212" fill="none" xmlns="http://www.w3.org/2000/svg">
<g clip-path="url(#clip0_6_55)">
<path d="M151.403 127L152.479 132.788L147.5 133.595V127H151.403Z" fill="#FDDF98"/>
<path d="M64.3913 95.7895L70.705 94.0313C70.705 94.0313 73.1781 93.5375 71.667 88.7067C70.1559 83.8758 67.1588 85.2278 67.1588 85.2278L61.558 86.8553L59.3467 87.5384L62.458 91.9042L62.7188 94.8141L64.3913 95.7895Z" fill="#3F3D56"/>
<path d="M52.1916 83.0255L50.2108 90.9398L60.3605 100.778L61.2331 100.997L63.5609 100.343L65.542 92.4293L63.5353 90.3186L65.5863 89.7811L61.2094 85.5312L58.9256 86.0108L57.0934 84.1914L58.3298 83.6972L58.4467 83.2316L56.9488 82.0524L52.1916 83.0255Z" fill="#3F3D56"/>
<path d="M61.701 94.1881L60.3898 99.4252L54.3407 93.7054L55.8555 88.3954L61.701 94.1881Z" fill="#FDB913"/>
<path d="M52.1918 83.0255L51.9141 84.1352L62.0068 93.9555L62.8794 94.1741L65.1348 93.5636L65.2589 93.5611L65.5423 92.4292L63.5356 90.3186L65.5865 89.7811L61.2097 85.5312L58.9258 86.0107L57.0937 84.1913L58.3301 83.6971L58.447 83.2316L56.949 82.0524L52.1918 83.0255Z" stroke="#3F3D56" stroke-width="0.895954" stroke-miterlimit="10"/>
<path d="M57.6688 83.1294C57.7452 82.8241 57.4425 82.4853 56.9927 82.3726C56.5428 82.26 56.1162 82.4162 56.0398 82.7215C55.9633 83.0268 56.266 83.3656 56.7159 83.4783C57.1657 83.5909 57.5924 83.4347 57.6688 83.1294Z" fill="#FDB913"/>
<path d="M64.0799 91.5992C64.1564 91.2938 63.8536 90.955 63.4038 90.8424C62.9539 90.7297 62.5273 90.8859 62.4509 91.1912C62.3745 91.4965 62.6772 91.8353 63.127 91.948C63.5769 92.0606 64.0035 91.9045 64.0799 91.5992Z" fill="#FDB913"/>
<path d="M68.5865 105.648L67.2096 100.966C67.2096 100.966 70.7894 92.4277 66.6588 91.6014C62.5283 90.7751 62.2529 99.5888 62.2529 99.5888L63.9051 104.822L68.5865 105.648Z" fill="#FDDF98"/>
<path d="M43.0236 96.5439C49.0648 96.5439 53.9622 91.6456 53.9622 85.6032C53.9622 79.5608 49.0648 74.6625 43.0236 74.6625C36.9823 74.6625 32.085 79.5608 32.085 85.6032C32.085 91.6456 36.9823 96.5439 43.0236 96.5439Z" fill="#FDDF98"/>
<path d="M46.5617 93.3263C46.5617 93.3263 47.2051 101.371 48.8137 102.015C50.4223 102.658 34.4316 107.163 34.4316 107.163L39.2575 101.693C39.2575 101.693 37.2317 93.3263 34.9796 91.3956L46.5617 93.3263Z" fill="#FDDF98"/>
<path d="M61.9775 103.169L66.3835 102.618C66.3835 102.618 71.6156 105.373 71.6156 108.953C71.6156 112.534 74.6447 118.318 74.6447 118.318C74.6447 118.318 76.8477 126.03 71.891 126.581C66.9343 127.131 62.5283 118.318 62.5283 118.318L61.9775 103.169Z" fill="#FDB913"/>
<path d="M64.4563 146.962L73.3384 140.842C74.7431 139.856 76.4105 139.313 78.1263 139.282C79.8421 139.251 81.528 139.733 82.9675 140.668C84.1914 141.484 85.1093 142.555 85.1093 143.932C85.1093 148.064 76.022 157.704 76.022 157.704C76.022 157.704 69.1376 172.852 62.5287 173.403C58.1812 173.797 53.8599 174.441 49.5861 175.331C49.5861 175.331 52.6152 186.348 50.963 189.378C49.3108 192.407 42.9772 195.988 42.4264 195.712C41.8757 195.437 34.1652 188.276 30.8608 178.085C27.5563 167.894 25.3533 160.182 28.3824 159.632C31.4115 159.081 64.4563 146.962 64.4563 146.962Z" fill="#2F2E41"/>
<path d="M84.2827 143.106C84.2827 143.106 86.2103 142.831 85.935 147.513C85.6596 152.195 84.8335 168.996 83.4566 172.302C82.0798 175.607 81.8044 179.463 82.3551 180.84C82.9059 182.217 84.0074 184.42 82.0798 184.696C80.1522 184.971 72.1663 183.869 71.3402 183.594C70.5141 183.319 74.6447 172.577 74.094 172.026C73.5432 171.475 72.9925 158.53 72.9925 158.53L84.2827 143.106Z" fill="#2F2E41"/>
<path d="M81.529 183.869C81.529 183.869 86.2103 182.492 86.7611 185.522C86.7611 185.522 87.5872 190.204 84.0073 191.857C81.6972 192.949 79.4859 194.239 77.3984 195.713C77.3984 195.713 71.6155 197.916 71.3402 195.162C71.0648 192.408 72.4417 182.492 72.4417 182.492L81.529 183.869Z" fill="#2F2E41"/>
<path d="M50.4118 187.175L41.5999 180.013C41.5999 180.013 43.2521 188.827 41.0491 190.48L40.0428 193.422L42.8607 195.728C42.8607 195.728 51.5133 194.336 50.4118 187.175Z" fill="#2F2E41"/>
<path d="M38.0196 175.055C38.0196 175.055 43.8025 176.708 42.9764 182.492C42.1502 188.276 41.091 194.56 41.091 194.56C41.091 194.56 40.7734 210.035 36.6428 211.136C32.5122 212.238 31.4107 210.035 31.4107 210.035C31.4107 210.035 26.7153 197.942 28.1062 194.335C29.7897 189.97 32.2157 185.068 31.4107 183.594C30.6186 182.143 31.9614 174.229 38.0196 175.055Z" fill="#2F2E41"/>
<path d="M34.7155 99.038C34.7155 99.038 36.9185 99.3134 40.4984 99.8643C44.0783 100.415 46.5566 97.6609 48.4842 98.2117C50.4118 98.7626 66.3835 102.619 66.3835 102.619L65.002 113.212C64.5492 116.684 63.4246 120.009 61.9841 123.2C59.6613 128.346 63.1028 144.466 66.3835 147.513C69.237 150.164 72.9924 150.818 68.8618 155.5C64.7312 160.183 57.5715 164.314 42.9768 162.937C28.382 161.56 26.4544 161.835 26.4544 159.632C26.4544 157.428 31.6483 128.509 29.9961 126.856C28.3438 125.204 27.5177 123.551 27.5177 122.725C27.5177 122.172 25.7951 115.959 24.6528 111.899C23.8231 109.034 24.1318 105.959 25.5147 103.316C26.0316 102.348 26.6227 101.605 27.2423 101.517C29.1699 101.241 27.8312 99.8642 29.2081 99.8642C30.5849 99.8642 31.4111 100.14 32.2372 99.8642L34.7155 99.038Z" fill="#FDB913"/>
<path d="M55.8223 78.2238C55.8223 78.2238 55.5732 64.7038 42.3052 71.1037C42.3052 71.1037 32.1031 70.7439 30.6753 83.6517L29.2949 97.1651L30.7736 96.0531L31.7643 97.5813L34.4665 97.8574L35.2554 95.4802L36.1904 98.0882L57.84 97.0729C57.84 97.0729 47.4516 92.8279 45.8084 82.7196L47.9119 84.3754L55.8223 78.2238Z" fill="#2F2E41"/>
<path d="M30.8858 78.3424C33.8808 78.3424 36.3087 75.914 36.3087 72.9185C36.3087 69.9229 33.8808 67.4945 30.8858 67.4945C27.8908 67.4945 25.4629 69.9229 25.4629 72.9185C25.4629 75.914 27.8908 78.3424 30.8858 78.3424Z" fill="#2F2E41"/>
<path d="M36.2202 70.7903C35.9316 69.4419 35.1399 68.2542 34.0064 67.4691C32.8729 66.684 31.4828 66.3607 30.1192 66.5649C30.2279 66.5345 30.3352 66.5012 30.4471 66.4773C31.1436 66.3285 31.8625 66.3184 32.5628 66.4475C33.2632 66.5767 33.9312 66.8425 34.5289 67.2298C35.1265 67.6172 35.642 68.1185 36.046 68.7051C36.4499 69.2917 36.7344 69.9522 36.8831 70.6487C37.0319 71.3453 37.042 72.0644 36.9129 72.7648C36.7838 73.4653 36.518 74.1335 36.1308 74.7313C35.7435 75.329 35.2423 75.8446 34.6558 76.2487C34.0693 76.6527 33.409 76.9372 32.7125 77.086C32.6006 77.1099 32.4891 77.1233 32.3775 77.14C33.7055 76.7693 34.8422 75.9061 35.5561 74.7264C36.2701 73.5467 36.5076 72.1391 36.2202 70.7903Z" fill="#2F2E41"/>
<path d="M168.907 32.7833C173.843 32.7833 177.846 28.7805 177.846 23.8428C177.846 18.9051 173.843 14.9022 168.907 14.9022C163.97 14.9022 159.968 18.9051 159.968 23.8428C159.968 28.7805 163.97 32.7833 168.907 32.7833Z" fill="#2F2E41"/>
<path d="M173.613 29.7948C173.613 29.7948 173.478 35.3136 174.017 35.4482C174.555 35.5828 166.615 37.7365 166.615 37.7365L165.808 30.1987L173.613 29.7948Z" fill="#FDDF98"/>
<path d="M177.516 130.882L178.592 136.67L173.613 137.477V130.882H177.516Z" fill="#FDDF98"/>
<path d="M177.516 135.997C177.516 135.997 178.323 133.44 178.862 133.843C179.4 134.247 180.207 136.805 180.073 137.478C179.938 138.151 178.996 143.4 179.4 144.342C179.804 145.285 177.381 150.13 174.286 149.727C171.191 149.323 171.46 146.631 171.46 146.631L172.536 142.458L172.94 135.862C172.94 135.862 176.439 135.324 177.516 135.997Z" fill="#2F2E41"/>
<path d="M172.034 18.1324C174.076 18.1324 175.733 16.476 175.733 14.4328C175.733 12.3896 174.076 10.7333 172.034 10.7333C169.991 10.7333 168.335 12.3896 168.335 14.4328C168.335 16.476 169.991 18.1324 172.034 18.1324Z" fill="#2F2E41"/>
<path d="M176.966 12.429C176.966 11.5146 176.627 10.6325 176.015 9.95306C175.403 9.27359 174.562 8.84483 173.652 8.74949C173.78 8.73619 173.909 8.72952 174.038 8.72949C175.018 8.73039 175.958 9.12056 176.651 9.81426C177.344 10.508 177.733 11.4484 177.733 12.429C177.733 13.4096 177.344 14.3501 176.651 15.0438C175.958 15.7375 175.018 16.1277 174.038 16.1286C173.909 16.1285 173.78 16.1219 173.652 16.1086C174.562 16.0132 175.403 15.5845 176.015 14.905C176.627 14.2255 176.966 13.3435 176.966 12.429Z" fill="#2F2E41"/>
<path d="M168.903 33.5635C172.025 33.5635 174.555 31.0324 174.555 27.9102C174.555 24.7879 172.025 22.2568 168.903 22.2568C165.782 22.2568 163.251 24.7879 163.251 27.9102C163.251 31.0324 165.782 33.5635 168.903 33.5635Z" fill="#FDDF98"/>
<path d="M181.5 67.5C181.5 67.5 181.077 74.0003 180 77.5C178.923 80.9997 174.693 105.33 175.5 107.214C176.307 109.099 179.535 130.478 178.593 131.69C177.651 132.901 173.21 132.497 173.21 132.497L168.5 107.214C168.5 107.214 168.5 87.5 164.5 82.5C157 84.5 155 107.214 155 107.214C155 107.214 156.21 129.135 151.5 129C146.79 128.865 146.5 128 146.5 128L147.5 105V94.5C147.5 94.5 152.5 74.5 159.213 66.811C169.71 68.5609 181.5 67.5 181.5 67.5Z" fill="#2F2E41"/>
<path d="M172.537 33.6981C172.537 33.6981 174.152 32.7558 174.556 33.6981C174.959 34.6403 177.785 35.4479 178.862 34.6403C179.939 33.8327 182.63 34.9095 182.63 34.9095L185.591 43.6587C185.591 43.6587 184.111 51.1965 182.765 55.3692C181.419 59.542 180.881 68.1566 181.419 68.9642C181.957 69.7718 170.653 73.0023 165.135 70.9832C159.617 68.9642 158.406 66.6759 158.406 66.6759C158.406 66.6759 164.462 58.0613 162.444 54.0232C160.425 49.9851 162.04 45.4086 162.04 45.4086L161.232 40.8321L165.808 38.2746C165.808 38.2746 166.077 35.8517 167.154 35.8517C168.23 35.8517 172.537 33.6981 172.537 33.6981Z" fill="#FDB913"/>
<path d="M163.25 40.9669H161.232C160.672 41.491 160.254 42.1491 160.019 42.8791C159.784 43.6091 159.738 44.387 159.886 45.1396C160.424 47.6971 162.852 56.1759 162.852 56.1759L164.865 50.9276L163.25 40.9669Z" fill="#FDB913"/>
<path d="M157.454 62.5836C157.454 62.5836 153.427 66.9455 156.387 69.2338C159.348 71.522 160.078 63.9842 160.078 63.9842L157.454 62.5836Z" fill="#FDDF98"/>
<path d="M163.251 53.4851L162.309 57.254L160.694 60.2153C160.694 60.2153 155.176 63.8496 155.176 65.1956C155.176 65.1956 157.598 62.0998 160.694 65.1956L163.452 58.5328L163.251 53.4851Z" fill="#FDB913"/>
<path d="M167.867 25.6467C171.272 25.6467 174.032 23.9904 174.032 21.9472C174.032 19.904 171.272 18.2476 167.867 18.2476C164.462 18.2476 161.702 19.904 161.702 21.9472C161.702 23.9904 164.462 25.6467 167.867 25.6467Z" fill="#2F2E41"/>
<path d="M180.073 22.257C180.073 22.257 175.767 19.8342 174.017 21.584C172.268 23.3338 179.266 26.0259 179.266 26.0259L180.073 22.257Z" fill="#FDDF98"/>
<path d="M181.688 35.5828L182.63 34.9098C182.63 34.9098 183.706 33.2946 184.648 33.833C185.59 34.3714 191.108 31.8139 191.108 31.8139C191.108 31.8139 189.089 32.7562 189.089 31.1409C189.089 29.5257 188.82 29.7949 187.475 29.7949C186.129 29.7949 186.129 30.4679 185.59 29.5257C185.052 28.5835 185.321 28.045 184.379 28.5834C183.437 29.1219 182.361 28.7181 182.091 28.3142C181.822 27.9104 176.977 27.2374 176.977 27.2374C176.977 27.2374 178.862 21.7187 179.265 21.3149C179.669 20.9111 190.032 25.4876 190.032 25.4876C190.032 25.4876 203.086 29.1219 199.721 33.2946C196.357 37.4673 184.245 43.7937 184.245 43.7937L181.688 35.5828Z" fill="#FDB913"/>
<path d="M206.876 0L231.155 0.150826C231.155 0.150826 271.117 21.4178 243.068 65.46C243.068 65.46 231.607 62.745 218.94 72.0965C218.94 72.0965 211.551 1.65912 206.876 0Z" fill="#FDB913"/>
<path opacity="0.2" d="M214.098 0.220522C218.448 18.3933 223.365 65.2646 223.365 65.2646C234.682 56.9098 245.029 58.1857 247.108 58.5527C245.882 60.9804 244.533 63.3445 243.068 65.6356C243.068 65.6356 231.607 62.9207 218.94 72.2721C218.94 72.2721 211.551 1.83478 206.876 0.175659L214.098 0.220522Z" fill="black"/>
<path d="M243.22 22.7752L245.331 33.0317L271.863 28.2081L271.871 28.205L272.475 16.1388H267.348L243.22 22.7752Z" fill="#3F3D56"/>
<path opacity="0.2" d="M267.775 16.1388L271.862 28.2081L271.871 28.205L272.474 16.1388H267.775Z" fill="black"/>
<path d="M244.124 34.2382C245.79 34.2382 247.14 31.1319 247.14 27.3001C247.14 23.4683 245.79 20.3619 244.124 20.3619C242.459 20.3619 241.108 23.4683 241.108 27.3001C241.108 31.1319 242.459 34.2382 244.124 34.2382Z" fill="#3F3D56"/>
<path d="M259.808 173.923C259.687 173.923 259.567 173.899 259.455 173.853C259.343 173.807 259.241 173.739 259.156 173.653C259.07 173.568 259.002 173.466 258.956 173.354C258.91 173.242 258.886 173.122 258.886 173.001V27.3C258.886 27.0554 258.983 26.8209 259.156 26.648C259.329 26.4751 259.563 26.3779 259.808 26.3779C260.052 26.3779 260.287 26.4751 260.459 26.648C260.632 26.8209 260.729 27.0554 260.729 27.3V173.001C260.73 173.122 260.706 173.242 260.659 173.354C260.613 173.466 260.545 173.567 260.46 173.653C260.374 173.739 260.272 173.807 260.161 173.853C260.049 173.899 259.929 173.923 259.808 173.923Z" fill="#3F3D56"/>
<path d="M247.142 199.564C247.005 199.565 246.871 199.535 246.748 199.477C246.625 199.419 246.516 199.334 246.429 199.229C246.342 199.124 246.28 199.001 246.247 198.869C246.213 198.737 246.209 198.599 246.236 198.466L258.003 138.125L227.101 185.272C227.035 185.373 226.949 185.46 226.849 185.529C226.749 185.597 226.636 185.645 226.518 185.67C226.399 185.695 226.277 185.696 226.158 185.673C226.038 185.651 225.925 185.605 225.824 185.538C225.722 185.472 225.635 185.386 225.567 185.286C225.499 185.185 225.451 185.073 225.426 184.954C225.402 184.835 225.401 184.713 225.424 184.594C225.446 184.475 225.492 184.361 225.559 184.26L259.037 133.186C259.154 133.007 259.329 132.875 259.533 132.811C259.737 132.748 259.957 132.757 260.155 132.838C260.353 132.918 260.517 133.065 260.618 133.253C260.72 133.441 260.753 133.658 260.713 133.868L248.045 198.819C248.004 199.029 247.892 199.218 247.727 199.354C247.562 199.489 247.355 199.564 247.142 199.564Z" fill="#3F3D56"/>
<path d="M294.794 188.101C294.641 188.102 294.49 188.064 294.355 187.991C294.22 187.918 294.106 187.813 294.022 187.685L259.036 134.291C258.97 134.19 258.924 134.076 258.901 133.957C258.878 133.838 258.879 133.716 258.904 133.597C258.929 133.479 258.976 133.366 259.044 133.266C259.113 133.166 259.2 133.08 259.301 133.013C259.403 132.947 259.516 132.901 259.635 132.879C259.754 132.856 259.877 132.857 259.995 132.882C260.114 132.907 260.226 132.955 260.326 133.023C260.426 133.092 260.512 133.179 260.578 133.281L295.564 186.674C295.655 186.813 295.707 186.974 295.714 187.14C295.721 187.306 295.683 187.471 295.604 187.617C295.525 187.763 295.408 187.886 295.266 187.971C295.123 188.056 294.96 188.101 294.794 188.101Z" fill="#3F3D56"/>
<path d="M151.562 132.197C151.562 132.197 152.369 129.639 152.908 130.043C153.446 130.447 154.253 133.005 154.119 133.678C153.984 134.351 153.042 139.6 153.446 140.542C153.85 141.485 151.427 146.33 148.332 145.926C145.237 145.523 145.506 142.831 145.506 142.831L146.583 138.658L146.986 132.062C146.986 132.062 150.485 131.524 151.562 132.197Z" fill="#2F2E41"/>
</g>
<defs>
<clipPath id="clip0_6_55">
<rect width="310" height="211.445" fill="white"/>
</clipPath>
</defs>
</svg>
