<svg width="157" height="235" viewBox="0 0 157 235" fill="none" xmlns="http://www.w3.org/2000/svg">
<path d="M17.2926 29.0452C18.965 35.4639 19.4963 42.4046 20.4025 49.1344C21.2955 55.7649 22.1094 62.1623 24.8766 67.6601C27.7965 73.4603 32.1828 76.7513 36.8287 77.8225C41.7397 78.9547 46.7449 78.0794 51.6766 78.8476C56.6745 79.6265 61.2171 82.0824 65.0903 87.111C68.3842 91.3874 70.8202 96.9898 72.5607 103.027C74.3232 109.14 75.5092 115.574 76.8123 121.941C78.0689 128.08 79.2932 134.512 82.4429 139.028C88.1087 147.15 97.0602 145.661 104.144 147.546C111.916 149.614 120.162 153.993 125.16 163.957C128.039 169.698 129.103 176.129 128.645 183.331C128.213 190.109 126.59 197.895 129.17 204.11C131.202 209.004 134.904 211.036 138.352 212.571C141.868 214.136 145.591 215.291 148.758 218.262C153.038 222.28 155.618 228.236 157 235L157 1.52588e-05L5.28556e-06 1.53341e-06L4.53205e-06 8.61914C7.60854 9.63019 14.4588 18.1689 17.2926 29.0452Z" fill="#004F76" fill-opacity="0.1"/>
</svg>
